<?xml version="1.0" standalone="no"?>
<!DOCTYPE svg PUBLIC "-//W3C//DTD SVG 20010904//EN"
 "http://www.w3.org/TR/2001/REC-SVG-20010904/DTD/svg10.dtd">
<svg version="1.0" xmlns="http://www.w3.org/2000/svg"
 width="375.000000pt" height="666.000000pt" viewBox="0 0 375.000000 666.000000"
 preserveAspectRatio="xMidYMid meet">

<g transform="translate(0.000000,666.000000) scale(0.100000,-0.100000)"
fill="#000000" stroke="none">
<path d="M1615 5430 c-93 -40 -168 -113 -183 -178 -9 -41 -8 -56 14 -118 28
-81 30 -116 9 -134 -8 -7 -15 -24 -15 -39 0 -37 19 -99 32 -107 7 -4 8 -3 4 4
-4 7 -2 12 5 12 7 0 9 -10 6 -26 -3 -19 -1 -24 10 -19 11 3 13 1 9 -10 -3 -10
1 -15 13 -15 14 0 18 5 14 20 -3 11 -10 20 -15 20 -5 0 -7 4 -3 9 3 5 1 12 -5
16 -6 4 -8 11 -5 16 4 5 2 9 -4 9 -6 0 -7 15 -4 35 4 24 2 35 -6 35 -7 0 -10
-4 -7 -9 3 -5 -1 -14 -9 -21 -13 -10 -14 -6 -12 28 2 37 4 40 25 35 21 -5 22
-2 22 47 0 29 6 66 14 83 8 18 16 40 20 49 7 22 53 35 69 19 8 -8 4 -18 -16
-39 -32 -34 -34 -42 -7 -42 25 0 25 -5 -1 -38 l-21 -27 25 -3 c20 -3 23 -7 19
-29 -3 -15 -1 -23 5 -20 5 3 8 -13 5 -41 -2 -26 -3 -73 -3 -104 1 -40 -3 -57
-11 -55 -7 1 -14 -8 -16 -20 -2 -15 2 -23 11 -23 8 0 18 -7 21 -16 5 -13 9
-14 20 -4 11 8 20 9 36 0 12 -6 26 -9 33 -6 7 2 4 5 -6 5 -11 1 -15 6 -11 13
4 7 3 8 -4 4 -7 -4 -12 -3 -12 3 0 12 -32 2 -42 -13 -4 -6 -8 -1 -8 12 0 19 4
22 20 17 13 -4 23 0 32 14 8 13 23 21 38 20 21 0 22 -2 6 -8 -16 -6 -17 -9 -4
-22 18 -17 10 -47 -21 -88 -18 -24 -29 -30 -45 -25 -27 8 -29 11 -21 24 5 8
11 6 19 -6 12 -15 13 -15 11 6 -2 28 -22 38 -31 16 -3 -9 -10 -13 -15 -10 -5
3 -9 1 -9 -3 0 -16 53 -65 84 -79 44 -19 84 -63 66 -74 -7 -4 -10 -15 -7 -24
10 -26 -21 -31 -42 -7 -21 24 -36 28 -27 6 10 -28 -14 -15 -59 30 -39 39 -45
42 -45 23 0 -27 60 -128 76 -128 6 0 19 -9 30 -21 10 -12 32 -28 49 -36 16 -9
39 -24 51 -34 20 -19 21 -19 34 6 7 13 40 45 72 71 45 35 67 62 92 112 31 64
52 122 42 122 -3 0 -16 -24 -29 -54 -29 -62 -82 -107 -129 -109 -28 -2 -33 1
-32 21 0 17 -5 22 -23 22 -30 0 -22 15 20 35 47 22 94 68 76 73 -8 3 -18 11
-22 18 -4 8 -17 14 -28 14 -12 0 -19 5 -16 13 2 6 -2 20 -11 30 -14 15 -13 19
3 37 18 20 18 21 -5 42 l-23 22 28 9 c25 9 31 6 55 -23 19 -23 29 -29 34 -21
6 9 11 8 21 -5 10 -14 11 -8 4 37 -12 88 -44 159 -71 159 -17 0 -7 -32 17 -55
l24 -25 -27 0 c-15 0 -34 5 -42 10 -13 9 -13 11 0 20 23 16 -15 43 -41 30 -11
-7 -27 -6 -44 0 -33 13 -31 13 -49 -6 -14 -14 -15 -11 -13 28 3 41 5 43 37 48
33 5 35 7 38 48 3 34 7 43 20 40 10 -2 19 -16 22 -33 3 -17 10 -31 15 -32 6
-1 22 -4 36 -8 27 -7 65 18 54 35 -3 4 5 6 17 3 22 -4 22 -4 -1 10 -14 8 -26
22 -27 31 -3 18 29 39 42 28 5 -4 0 3 -10 16 -15 18 -29 22 -73 22 -29 0 -53
3 -53 8 1 4 23 17 50 30 28 13 50 30 50 38 0 23 21 16 51 -18 18 -22 34 -57
45 -103 25 -103 34 -112 33 -30 0 39 0 75 1 80 1 6 1 21 0 34 -1 14 2 21 9 17
6 -4 11 -2 11 3 0 6 -7 11 -16 11 -10 0 -14 6 -11 14 7 17 -26 31 -44 20 -7
-4 -9 -3 -5 4 3 5 0 13 -6 16 -7 3 -1 4 14 1 21 -4 26 -2 22 9 -3 8 -13 12
-24 9 -11 -3 -28 -2 -37 2 -17 7 -16 8 2 15 14 6 15 9 4 9 -8 1 -33 17 -55 37
-45 43 -125 74 -186 74 -25 0 -73 -13 -113 -30z m49 -452 c-3 -4 -9 -8 -15 -8
-5 0 -9 4 -9 8 0 5 7 9 15 9 8 0 12 -4 9 -9z m53 -84 c-3 -3 -12 -4 -19 -1 -8
3 -5 6 6 6 11 1 17 -2 13 -5z m43 -80 c0 -2 -9 -4 -21 -4 -11 0 -18 4 -14 10
5 8 35 3 35 -6z"/>
<path d="M2068 5034 c-4 -3 -3 -17 3 -31 14 -36 12 -58 -4 -45 -10 8 -13 2
-13 -29 -1 -38 -1 -39 13 -19 19 27 28 93 16 114 -5 9 -12 14 -15 10z"/>
<path d="M2037 4853 c-13 -12 -7 -43 8 -43 8 0 15 6 15 13 0 18 -15 38 -23 30z"/>
<path d="M2419 3954 c-15 -39 0 -186 20 -192 15 -5 13 11 -9 97 -8 32 -8 53 1
78 14 42 4 57 -12 17z"/>
<path d="M1310 3829 c7 -11 14 -18 17 -15 8 8 -5 36 -17 36 -7 0 -7 -6 0 -21z"/>
<path d="M1332 3770 c0 -14 2 -19 5 -12 2 6 2 18 0 25 -3 6 -5 1 -5 -13z"/>
<path d="M1320 3715 c0 -8 5 -15 10 -15 6 0 10 7 10 15 0 8 -4 15 -10 15 -5 0
-10 -7 -10 -15z"/>
<path d="M2460 3663 c0 -22 2 -25 10 -13 8 12 10 12 10 1 0 -8 2 -12 5 -10 7
8 -6 49 -16 49 -5 0 -9 -12 -9 -27z"/>
<path d="M2878 2970 c-2 -6 -32 -17 -68 -24 -36 -8 -84 -22 -107 -31 -39 -15
-41 -19 -32 -41 20 -53 49 -252 49 -335 0 -94 -8 -124 -45 -179 -27 -41 -49
-121 -64 -240 -6 -47 -14 -95 -17 -106 -4 -15 0 -23 13 -28 29 -12 67 40 83
112 7 34 16 62 20 62 17 0 29 -28 32 -75 3 -48 2 -50 -24 -53 -20 -2 -28 -9
-28 -22 0 -10 -4 -22 -10 -25 -5 -3 -10 -19 -10 -34 0 -23 5 -30 25 -33 24 -5
84 6 136 24 28 10 64 72 53 90 -4 6 -2 8 4 4 14 -9 21 5 30 56 6 35 4 46 -13
63 -11 11 -26 19 -32 17 -7 -2 -13 4 -13 11 0 8 -7 17 -15 20 -8 4 -23 24 -34
47 l-19 40 23 0 c12 0 23 6 22 13 0 6 1 29 1 50 2 34 5 38 22 32 16 -5 20 -2
20 17 -1 13 -7 34 -15 48 -18 31 -19 67 -2 73 9 3 9 7 -1 20 -8 9 -11 25 -7
37 4 11 2 20 -4 20 -15 0 -9 22 9 37 8 7 10 13 4 13 -7 0 -10 28 -10 76 1 42
-3 78 -7 81 -4 3 -3 10 2 17 7 8 7 24 1 44 -5 18 -5 32 0 32 4 0 6 9 3 19 -4
18 19 34 51 36 19 1 17 25 -2 25 -11 0 -22 -5 -24 -10z"/>
<path d="M1138 2918 c-61 -21 -75 -38 -32 -38 22 0 25 -4 21 -21 -4 -16 3 -31
25 -52 17 -17 26 -33 21 -34 -11 -4 -5 -63 6 -63 4 0 8 -6 8 -13 0 -20 57
-177 63 -177 11 0 40 70 40 95 0 13 9 47 20 74 17 44 18 62 11 139 -4 49 -11
94 -15 101 -11 17 -105 12 -168 -11z"/>
<path d="M1140 2790 c0 -5 5 -10 11 -10 5 0 7 5 4 10 -3 6 -8 10 -11 10 -2 0
-4 -4 -4 -10z"/>
<path d="M2860 2496 c0 -1 5 -18 12 -36 10 -29 12 -31 18 -14 8 21 -5 54 -20
54 -6 0 -10 -2 -10 -4z"/>
<path d="M1855 1300 c-3 -5 -1 -10 4 -10 6 0 11 5 11 10 0 6 -2 10 -4 10 -3 0
-8 -4 -11 -10z"/>
<path d="M2310 1300 c-34 -7 -34 -7 -5 -8 17 0 39 3 50 8 24 10 4 10 -45 0z"/>
<path d="M1922 1160 c0 -14 2 -19 5 -12 2 6 2 18 0 25 -3 6 -5 1 -5 -13z"/>
<path d="M1740 620 c20 -13 33 -13 25 0 -3 6 -14 10 -23 10 -15 0 -15 -2 -2
-10z"/>
<path d="M1810 90 c0 -5 -7 -10 -15 -10 -12 0 -11 -5 3 -31 18 -32 30 -33 117
-15 11 3 29 5 39 5 26 1 15 11 -20 17 -16 3 -42 12 -58 19 -16 8 -32 12 -37 9
-5 -3 -9 0 -9 5 0 6 -4 11 -10 11 -5 0 -10 -4 -10 -10z"/>
</g>
</svg>
