<?xml version="1.0" standalone="no"?>
<!DOCTYPE svg PUBLIC "-//W3C//DTD SVG 20010904//EN"
 "http://www.w3.org/TR/2001/REC-SVG-20010904/DTD/svg10.dtd">
<svg version="1.0" xmlns="http://www.w3.org/2000/svg"
 width="666.000000pt" height="375.000000pt" viewBox="0 0 666.000000 375.000000"
 preserveAspectRatio="xMidYMid meet">

<g transform="translate(0.000000,375.000000) scale(0.100000,-0.100000)"
fill="#000000" stroke="none">
<path d="M3008 3277 c-18 -5 -40 -14 -48 -22 -8 -7 -64 -38 -125 -70 -133 -70
-185 -105 -216 -144 -82 -101 -89 -115 -88 -190 1 -54 31 -109 63 -117 26 -6
61 -66 53 -89 -9 -21 -8 -30 1 -30 28 -1 45 -42 17 -42 -8 0 -15 4 -15 9 0 15
-44 26 -62 16 -25 -12 -23 -54 5 -108 33 -65 37 -71 48 -65 5 4 -2 21 -15 38
-29 38 -33 62 -17 101 10 24 14 26 27 15 9 -7 23 -14 31 -15 25 -4 28 -14 4
-14 -12 0 -24 -7 -27 -15 -4 -8 -10 -12 -15 -9 -15 9 -1 -48 15 -64 13 -13 17
-13 33 4 17 16 17 17 1 11 -10 -3 -18 -2 -18 4 0 10 24 39 33 39 2 0 8 -32 11
-71 6 -55 4 -74 -6 -80 -10 -7 -10 -9 2 -9 17 0 74 -125 66 -146 -3 -7 0 -16
6 -20 7 -5 8 -2 3 7 -5 8 -4 10 0 6 14 -12 15 -39 1 -34 -28 11 5 -93 78 -244
61 -128 84 -166 126 -205 61 -60 128 -159 151 -226 l16 -49 12 63 c20 104 82
252 137 324 20 27 23 44 25 130 2 81 -1 105 -16 134 -16 29 -20 32 -22 15 -10
-57 -14 -65 -34 -65 -17 0 -19 4 -13 23 4 12 11 25 16 28 6 4 5 9 -3 11 -11 4
-10 11 7 34 11 16 26 45 34 64 7 19 25 60 38 90 14 30 26 75 28 100 2 25 1 36
-2 25 -4 -11 -12 -27 -19 -35 -8 -8 -21 -29 -30 -45 l-16 -30 5 30 c7 36 -27
80 -74 96 -31 11 -38 23 -20 34 6 3 10 15 10 25 0 13 10 21 32 25 17 4 38 14
46 21 7 8 24 14 36 14 13 0 29 7 36 15 7 8 17 12 22 9 12 -8 2 -82 -13 -101
-6 -7 -9 -18 -6 -25 3 -7 13 5 22 27 21 48 33 155 17 155 -5 0 -10 15 -10 33
0 17 -9 57 -19 87 -12 32 -21 87 -22 130 -1 40 -4 77 -6 80 -2 3 0 22 4 42 13
57 -24 178 -49 163 -5 -3 -10 -2 -12 2 -4 9 -65 53 -73 53 -3 0 -3 -4 0 -10 8
-13 -5 -13 -25 0 -12 8 -12 10 -1 10 11 0 11 3 0 16 -29 35 -112 49 -181 31z
m-58 -312 c-23 -25 -40 -32 -40 -17 0 7 49 41 59 42 3 0 -6 -11 -19 -25z m136
17 c18 8 29 9 31 2 2 -6 32 -9 77 -7 86 4 93 0 106 -82 5 -31 16 -69 24 -86
13 -27 13 -29 -4 -29 -10 0 -21 4 -24 9 -12 19 -81 18 -131 -1 -49 -19 -85
-20 -175 -3 -34 6 -128 -5 -162 -19 -13 -6 -15 -3 -11 13 3 11 13 27 23 36 10
9 16 23 13 31 -3 8 -1 14 5 14 5 0 7 11 4 25 -6 36 14 58 41 43 l21 -11 -23
-8 c-12 -5 -19 -14 -16 -19 4 -7 11 -7 18 -2 7 5 25 12 41 16 19 5 26 10 18
15 -9 5 -6 13 10 28 35 32 61 43 74 32 8 -6 22 -5 40 3z m-336 -237 c-7 -9
-15 -13 -19 -10 -3 3 1 10 9 15 21 14 24 12 10 -5z m390 -102 c12 -27 31 -60
41 -75 24 -34 26 -83 3 -74 -9 4 -23 1 -31 -5 -10 -9 -23 -9 -53 1 -31 10 -43
10 -54 1 -11 -10 -16 -9 -24 5 -11 19 -3 47 39 142 29 67 49 68 79 5z m-337
-32 c9 -42 30 -58 87 -66 27 -4 47 -11 44 -16 -3 -5 6 -9 21 -9 15 0 28 -7 32
-17 4 -10 18 -26 31 -37 27 -22 22 -29 -33 -46 -71 -21 -94 -34 -97 -54 -3
-21 -38 -32 -38 -11 0 7 -15 22 -34 33 -18 11 -40 34 -47 51 -8 17 -18 31 -23
31 -4 0 -5 16 -2 35 6 28 4 35 -9 35 -14 0 -20 24 -15 60 3 19 26 35 54 38 19
1 25 -5 29 -27z m537 -21 c0 -5 -8 -10 -17 -10 -15 0 -16 2 -3 10 19 12 20 12
20 0z m-207 -187 c-7 -2 -19 -2 -25 0 -7 3 -2 5 12 5 14 0 19 -2 13 -5z m-40
-70 c-13 -2 -33 -2 -45 0 -13 2 -3 4 22 4 25 0 35 -2 23 -4z m70 0 c-7 -2 -21
-2 -30 0 -10 3 -4 5 12 5 17 0 24 -2 18 -5z m64 -37 c-3 -7 -14 -15 -24 -18
-27 -7 -26 22 1 44 18 14 21 14 24 2 2 -8 1 -21 -1 -28z m-222 3 c13 22 32 12
27 -14 -2 -14 -8 -22 -13 -19 -5 3 -9 0 -9 -5 0 -6 10 -11 23 -12 21 0 21 -1
2 -9 -28 -12 -37 -12 -30 0 3 6 1 10 -5 10 -6 0 -8 5 -5 10 3 6 -1 13 -9 16
-9 3 -16 16 -16 28 1 20 1 20 14 3 9 -12 16 -14 21 -8z m210 -48 c-8 -14 -25
-14 -25 0 0 5 5 7 10 4 6 -3 10 -1 10 6 0 7 3 10 6 6 3 -3 3 -10 -1 -16z"/>
<path d="M3780 1786 c0 -2 8 -10 18 -17 15 -13 16 -12 3 4 -13 16 -21 21 -21
13z"/>
<path d="M2531 1400 c0 -8 4 -22 9 -30 12 -18 12 -2 0 25 -6 13 -9 15 -9 5z"/>
<path d="M2542 1270 c0 -14 2 -19 5 -12 2 6 2 18 0 25 -3 6 -5 1 -5 -13z"/>
<path d="M3096 1115 c1 -44 10 -111 18 -150 8 -38 18 -97 21 -131 6 -54 5 -62
-11 -68 -18 -7 -18 -8 0 -22 20 -14 20 -14 0 -30 -10 -8 -12 -12 -4 -8 13 7
13 6 1 -10 -10 -12 -17 -14 -25 -6 -16 16 -28 12 -24 -7 5 -23 -27 -57 -45
-50 -8 3 -20 0 -26 -6 -8 -8 -11 -7 -11 4 -1 11 -4 10 -14 -4 -10 -13 -16 -15
-21 -7 -6 9 -10 9 -16 -1 -6 -10 -9 -8 -9 9 0 12 -6 22 -14 22 -8 0 -21 3 -30
6 -10 4 -17 -2 -22 -20 -3 -14 -10 -23 -15 -20 -5 3 -9 -3 -10 -13 0 -16 -1
-16 -8 2 -7 16 -9 13 -15 -17 -4 -21 -38 -99 -77 -175 -58 -114 -69 -144 -65
-172 3 -19 11 -38 18 -43 8 -5 0 -8 -22 -8 -19 0 -51 -3 -70 -6 -32 -5 -35 -9
-37 -42 -2 -27 0 -33 7 -22 8 12 10 11 10 -7 0 -12 3 -29 7 -39 4 -11 3 -15
-4 -11 -6 4 -13 1 -16 -7 -4 -9 3 -16 16 -20 17 -5 19 -8 8 -15 -7 -5 -22 -6
-34 -3 -13 3 -18 1 -13 -6 4 -7 52 -10 135 -10 104 1 128 4 124 15 -3 7 0 13
6 13 6 0 11 -8 12 -17 1 -12 4 -10 9 7 8 25 8 25 9 2 1 -22 4 -23 81 -21 68 2
80 5 85 21 4 10 11 16 16 13 5 -4 9 1 9 10 0 9 -4 13 -10 10 -5 -3 -10 -1 -10
4 0 25 -20 9 -21 -16 -1 -21 -3 -23 -6 -8 -3 11 -13 25 -22 31 -9 7 -13 16 -8
20 4 4 7 2 7 -4 0 -7 4 -12 9 -12 15 0 10 70 -6 86 -24 24 -9 27 48 10 49 -15
124 -22 89 -9 -8 3 -17 9 -20 12 -3 4 -18 17 -34 29 -16 12 -26 22 -23 22 23
0 153 -32 170 -43 13 -7 75 -14 150 -17 l127 -5 -25 -27 c-49 -53 -23 -66 55
-30 30 15 61 34 68 44 8 11 25 18 45 17 18 0 26 -3 20 -6 -7 -2 -12 -17 -12
-31 1 -21 2 -23 6 -7 10 42 33 55 94 55 63 0 83 14 51 36 -11 8 -53 56 -93
107 -40 50 -94 114 -119 141 -28 31 -40 51 -32 53 6 3 9 10 6 15 -4 7 -2 8 4
4 6 -3 16 3 22 14 6 11 16 20 23 20 7 0 28 13 47 28 19 16 56 40 83 56 46 26
48 26 81 11 34 -16 35 -16 65 11 34 30 35 42 2 24 -14 -7 -21 -7 -21 0 0 5 -9
10 -20 10 -11 0 -20 -7 -20 -16 0 -8 -4 -12 -10 -9 -5 3 -10 21 -10 39 0 18
-9 59 -20 92 -11 32 -20 67 -20 77 0 10 -4 16 -9 13 -4 -3 -13 7 -20 22 -9 22
-9 24 1 11 11 -14 15 -12 28 16 l16 32 -25 -13 c-15 -8 -41 -11 -68 -7 -41 5
-43 4 -43 -20 0 -21 -5 -26 -37 -30 -21 -3 -51 -8 -68 -11 -16 -3 -37 -7 -45
-9 -8 -1 -21 -6 -28 -10 -15 -10 -52 0 -52 14 0 5 -4 9 -9 9 -4 0 -6 -11 -3
-25 5 -27 -7 -32 -26 -13 -10 10 -14 8 -18 -10 -4 -15 -14 -22 -29 -22 -13 0
-25 -5 -27 -12 -5 -14 -95 -15 -109 -1 -6 6 -18 60 -26 119 -8 60 -23 143 -33
184 l-18 75 4 -80z m459 -322 c19 -20 35 -41 35 -47 0 -5 -1 -7 -2 -5 -2 2
-21 23 -43 47 -21 23 -36 42 -32 42 4 0 23 -17 42 -37z m-875 -677 c0 5 5 1
11 -9 12 -20 3 -41 -13 -31 -7 4 -8 2 -4 -4 4 -7 16 -12 27 -12 10 0 19 -5 19
-10 0 -6 -10 -8 -24 -4 -13 3 -27 1 -30 -5 -21 -33 -27 4 -16 88 0 2 7 -2 15
-9 8 -7 15 -9 15 -4z m-50 -56 c0 -11 -2 -20 -4 -20 -2 0 -6 9 -9 20 -3 11 -1
20 4 20 5 0 9 -9 9 -20z m117 -12 c-3 -8 -6 -5 -6 6 -1 11 2 17 5 13 3 -3 4
-12 1 -19z m110 -10 c-3 -8 -6 -5 -6 6 -1 11 2 17 5 13 3 -3 4 -12 1 -19z m99
-25 c-10 -10 -19 5 -10 18 6 11 8 11 12 0 2 -7 1 -15 -2 -18z"/>
<path d="M3281 1062 c-1 -14 37 -92 44 -92 3 0 -3 17 -13 38 -11 20 -22 44
-25 52 -4 10 -6 11 -6 2z"/>
<path d="M2624 982 c3 -9 6 -70 7 -135 1 -65 5 -120 9 -122 35 -22 274 -21
390 1 30 5 32 8 15 14 -11 5 -37 9 -58 9 -21 1 -47 6 -57 11 -13 7 -33 6 -65
-2 -53 -14 -77 -5 -80 30 -3 41 -73 76 -82 41 -3 -10 -9 -19 -13 -19 -17 0
-44 78 -45 127 0 34 -5 55 -13 58 -9 3 -11 -1 -8 -13z"/>
<path d="M2591 850 c0 -8 4 -22 9 -30 12 -18 12 -2 0 25 -6 13 -9 15 -9 5z"/>
<path d="M2578 738 c5 -5 16 -8 23 -6 8 3 3 7 -10 11 -17 4 -21 3 -13 -5z"/>
<path d="M3078 743 c7 -3 16 -2 19 1 4 3 -2 6 -13 5 -11 0 -14 -3 -6 -6z"/>
<path d="M2465 720 c-3 -5 -1 -10 4 -10 6 0 11 5 11 10 0 6 -2 10 -4 10 -3 0
-8 -4 -11 -10z"/>
<path d="M2440 215 c-31 -18 -72 -19 -88 -3 -9 9 -9 5 0 -15 9 -18 21 -27 36
-27 15 0 21 -4 16 -12 -4 -6 -6 -28 -6 -50 1 -21 -3 -38 -8 -38 -6 0 -10 -16
-8 -35 2 -36 21 -47 32 -20 3 9 3 36 -1 60 -4 29 -1 50 7 59 14 18 6 34 -24
46 -20 8 -20 9 4 10 14 0 36 9 50 20 29 23 25 25 -10 5z"/>
<path d="M2352 125 c-1 -12 -6 -25 -11 -30 -5 -6 -5 -30 -1 -55 9 -62 22 -30
17 46 -2 33 -4 50 -5 39z"/>
<path d="M3347 103 c-3 -5 -2 -15 4 -23 5 -10 9 -11 9 -3 0 7 7 10 15 7 8 -4
12 -10 9 -15 -3 -5 0 -9 5 -9 6 0 11 9 11 20 0 11 -4 20 -9 20 -5 0 -16 3 -24
6 -8 3 -17 1 -20 -3z"/>
<path d="M3610 10 c-23 -7 -23 -8 -3 -9 12 -1 25 4 28 9 3 6 5 10 3 9 -2 -1
-14 -5 -28 -9z"/>
</g>
</svg>
