<?xml version="1.0"?>
<svg width="375" height="666" xmlns="http://www.w3.org/2000/svg" xmlns:svg="http://www.w3.org/2000/svg" preserveAspectRatio="xMidYMid meet" version="1.0">
 <g class="layer">
  <title>Layer 1</title>
  <g fill="#000000" id="svg_1" transform="matrix(0.1 0 0 -0.1 0 0)">
   <path d="m1760,-1307c0,-9 -16,-13 -47,-13c-44,0 -50,-4 -103,-58c-31,-32 -69,-87 -89,-126c-32,-66 -33,-74 -37,-207c-3,-116 -1,-139 11,-139c20,0 54,-52 37,-58c-7,-2 -9,-8 -6,-13c3,-6 -4,-18 -15,-28c-27,-24 -28,-61 -1,-68c29,-8 54,-103 28,-103c-9,0 -9,-3 -2,-8c5,-4 20,-32 33,-63c26,-65 102,-150 169,-190c27,-16 39,-28 31,-31c-8,-3 1,-8 19,-12c17,-4 32,-12 32,-17c0,-13 53,-36 73,-31c13,2 17,10 14,22c-4,14 0,17 18,14c31,-5 105,70 151,154c20,37 45,79 55,93c10,15 25,53 34,85c22,85 17,101 -6,19c-23,-80 -35,-98 -61,-92c-11,3 -18,0 -18,-10c0,-8 -4,-12 -9,-9c-4,3 -7,-8 -5,-24c4,-30 -26,-75 -34,-51c-2,6 -8,11 -13,11c-6,0 -7,-4 -4,-10c3,-5 2,-10 -4,-10c-6,0 -8,-7 -4,-15c4,-13 0,-15 -23,-9c-16,3 -68,8 -117,10c-48,2 -97,9 -110,16c-12,6 -27,13 -34,14c-6,1 -22,12 -35,24c-16,16 -18,21 -6,17c13,-5 16,-1 12,21c-6,28 -24,56 -32,47c-3,-2 -11,3 -19,13c-10,12 -16,14 -19,5c-8,-19 -24,-16 -24,4c0,9 -12,36 -26,60c-40,70 -34,203 10,203c9,0 12,7 9,20c-3,11 -1,20 5,20c6,0 14,-21 17,-47c12,-82 40,-105 140,-115c17,-2 33,-7 37,-13c8,-11 25,10 73,89c17,27 35,49 40,50c9,1 31,-37 55,-93c6,-15 18,-38 28,-54c15,-24 15,-29 2,-37c-10,-7 -11,-10 -2,-10c7,0 18,11 24,25c8,19 14,22 20,13c6,-10 8,-10 8,0c0,8 16,12 48,12c26,0 52,4 58,8c21,13 54,91 54,125c0,20 15,62 35,100c19,36 35,73 35,81c0,9 4,16 10,16c15,0 32,40 32,76c0,74 -84,165 -209,228c-58,29 -67,31 -57,14c4,-7 3,-8 -5,-4c-6,4 -9,11 -6,16c10,16 -61,31 -142,30c-12,0 -26,8 -31,16c-8,15 -12,15 -36,-1c-15,-10 -29,-15 -33,-11c-3,3 -1,6 5,6c7,0 12,3 12,8c0,4 -11,7 -25,7c-14,0 -25,-6 -25,-12zm240,-33c8,-5 11,-10 5,-10c-5,0 -17,5 -25,10c-8,5 -10,10 -5,10c6,0 17,-5 25,-10zm-41,-294c73,-4 105,-10 140,-29c44,-22 46,-25 57,-86c11,-62 11,-63 -10,-56c-21,8 -204,21 -418,31c-65,3 -118,9 -118,13c0,14 53,71 67,71c8,0 26,12 41,27c28,28 68,41 117,36c17,-1 72,-4 124,-7zm-286,-326c-6,-6 -33,30 -33,44c0,6 9,0 20,-14c10,-14 16,-27 13,-30zm-133,-35c0,-8 -7,-15 -15,-15c-16,0 -20,12 -8,23c11,12 23,8 23,-8z" fill="#ffffff" id="svg_2"/>
   <path d="m1449,-1891c-6,-12 -8,-36 -4,-56l6,-35l21,41c11,23 27,41 37,41c14,1 13,3 -3,15c-27,21 -43,19 -57,-6z" fill="#ffffff" id="svg_3"/>
   <path d="m2186,-1956c-3,-8 -3,-34 1,-57c5,-33 8,-37 14,-22c11,28 11,95 0,95c-5,0 -12,-7 -15,-16z" fill="#ffffff" id="svg_4"/>
   <path d="m1470,-2019c0,-11 29,-35 35,-29c2,2 -4,12 -15,21c-11,9 -20,13 -20,8z" fill="#ffffff" id="svg_5"/>
   <path d="m1828,-2033c-20,-16 -14,-27 14,-27c10,0 18,-4 18,-8c0,-11 -66,-42 -88,-42c-26,0 -42,-20 -42,-51c0,-22 4,-27 23,-24c12,1 29,6 37,9c9,4 24,-1 35,-9c19,-15 19,-16 -5,-4c-25,12 -25,12 -6,-10c11,-11 25,-21 32,-21c7,0 14,-5 16,-11c5,-15 67,-4 94,16c17,13 14,14 -36,16l-55,2l64,8c38,5 71,4 81,-1c13,-7 20,-5 24,6c13,34 5,54 -32,78c-30,19 -38,30 -37,52c0,28 -1,29 -60,31c-39,2 -66,-2 -77,-10zm102,-16c0,-4 -11,-8 -25,-9c-14,-1 -25,2 -25,7c0,5 11,9 25,9c14,0 25,-3 25,-7zm48,-88l27,-25l-28,21c-23,16 -40,20 -90,17c-36,-2 -54,-1 -42,4c44,17 105,9 133,-17z" fill="#ffffff" id="svg_6"/>
   <path d="m1571,-2326c0,-12 -8,-24 -16,-28c-8,-3 -20,-16 -26,-29c-7,-15 -35,-36 -70,-52c-32,-16 -59,-33 -59,-37c0,-5 -4,-7 -9,-3c-6,3 -10,-3 -9,-12c1,-46 -53,-231 -67,-225c-3,1 -9,2 -13,2c-9,0 -31,76 -30,103c1,9 5,17 10,17c5,0 6,5 3,10c-3,6 -17,10 -31,10c-21,0 -24,-4 -20,-25c6,-30 5,-30 -36,-5l-32,19l26,10c13,5 39,12 57,14c38,6 54,17 25,17c-16,0 -17,2 -4,10c12,8 10,10 -9,10c-13,0 -21,-3 -18,-7c9,-8 -48,-33 -75,-33c-24,0 -81,-29 -91,-46c-4,-8 -20,-15 -35,-15c-24,-2 -24,-2 -4,-6c12,-2 22,-9 22,-14c0,-6 4,-8 9,-5c5,3 11,-7 14,-22c6,-32 0,-42 -13,-22c-8,12 -10,12 -10,-4c0,-12 -5,-16 -15,-13c-8,4 -17,2 -20,-4c-4,-5 -10,-7 -15,-4c-4,3 -16,2 -26,-2c-15,-6 -14,-9 12,-31c20,-16 22,-20 7,-13c-12,6 -25,16 -28,21c-11,17 -35,11 -35,-9c0,-20 -23,-45 -33,-34c-9,8 -42,-72 -57,-137c-6,-30 -14,-122 -17,-205c-5,-150 -5,-150 27,-235c17,-47 37,-110 44,-140c7,-30 17,-64 23,-75c6,-11 34,-92 63,-180c29,-88 61,-177 72,-198c17,-34 18,-46 8,-110c-21,-141 -22,-190 -6,-260c30,-126 16,-282 -49,-547c-13,-52 -26,-131 -30,-175c-5,-60 -16,-100 -42,-159c-44,-98 -50,-163 -34,-340c20,-212 36,-289 81,-386c55,-120 61,-186 28,-295c-14,-44 -28,-97 -31,-117l-6,-38l314,0l313,0l7,38c11,68 10,67 162,67l138,0l3,-53l3,-52l280,0c215,0 280,3 283,13c2,6 15,53 29,103c14,51 34,109 45,130c29,58 42,174 48,419c9,348 -18,738 -64,940c-28,119 -30,141 -25,255c6,139 -2,195 -44,299c-15,36 -30,88 -33,115c-5,47 -7,50 -40,58c-89,20 -154,44 -265,97c-66,32 -150,70 -186,86c-36,16 -74,34 -84,41c-17,13 -17,15 8,38c37,34 41,64 24,158c-8,46 -14,85 -12,87c2,2 44,-6 92,-18c122,-29 259,-51 318,-51l50,0l17,48c21,59 53,82 77,56c9,-9 10,-14 4,-10c-7,4 -13,3 -13,-1c0,-15 23,-33 42,-33c13,0 18,-8 18,-30c0,-29 2,-30 45,-30c60,0 89,-15 122,-64c19,-29 27,-54 27,-86c1,-32 7,-51 24,-69c34,-37 45,-91 27,-135c-8,-20 -19,-35 -23,-35c-21,4 -31,-3 -34,-23c-2,-11 -10,-22 -18,-24c-8,-2 -28,-7 -45,-12l-30,-9l38,-12c51,-17 127,-7 196,27c66,33 80,51 65,90c-7,19 -8,36 -1,53c5,13 12,86 15,161c5,143 -15,303 -43,358c-20,37 -35,89 -35,119c0,14 -16,49 -35,76c-25,37 -37,68 -44,115c-9,64 -19,94 -69,200c-54,117 -87,142 -319,239c-185,78 -211,97 -257,187l-39,77l-13,-44c-7,-25 -21,-53 -31,-64c-10,-11 -24,-33 -31,-49c-10,-21 -16,-25 -26,-17c-9,8 -21,7 -44,-1c-44,-17 -40,-32 7,-25c37,5 39,4 32,-17c-16,-43 -11,-97 10,-115c20,-16 20,-16 -7,-68l-28,-53l-12,33c-6,17 -17,48 -24,67c-7,19 -17,39 -21,45c-5,5 -9,22 -9,38c0,22 -14,42 -62,88c-35,33 -62,64 -61,68c1,5 -8,17 -20,27l-22,19l19,-22c11,-13 14,-23 8,-23c-6,0 -23,16 -38,35c-15,20 -33,34 -40,31c-8,-3 -13,0 -11,6c1,7 -8,17 -19,22c-12,5 -27,19 -34,30l-13,21l24,-20l24,-20l-16,20c-10,11 -19,29 -22,40c-4,19 -5,19 -6,-1zm-6,-112c-3,-3 -11,0 -18,7c-9,10 -8,11 6,5c10,-3 15,-9 12,-12zm-49,-38c-3,-8 -1,-14 4,-14c6,0 10,4 10,9c0,5 8,12 17,15c12,5 27,-4 50,-31c18,-21 32,-42 33,-46c0,-4 11,-18 25,-31c13,-13 21,-27 17,-31c-4,-5 2,-5 13,-1c18,6 18,5 5,-8c-8,-8 -33,-18 -56,-22l-41,-6l-37,67c-35,61 -39,65 -52,48c-7,-10 -14,-13 -14,-6c0,6 4,15 10,18c5,3 7,20 3,37c-5,23 -3,29 6,24c7,-5 10,-14 7,-22zm-377,-107c-2,-1 -13,-9 -24,-17c-19,-14 -19,-14 -6,3c7,9 18,17 24,17c6,0 8,-1 6,-3zm417,-42c10,-41 -2,-52 -19,-18c-21,39 -21,43 -2,43c8,0 17,-11 21,-25zm-116,-4c0,-4 -5,-12 -11,-18c-7,-7 -11,-45 -10,-100c2,-86 1,-90 -28,-124c-33,-37 -37,-35 -20,8c9,23 38,200 39,240c0,13 30,6 30,-6zm-335,-1c3,-6 -1,-7 -9,-4c-18,7 -21,14 -7,14c6,0 13,-4 16,-10zm375,-40c0,-13 -7,-20 -20,-20c-25,0 -25,9 -2,26c22,17 22,17 22,-6zm-373,-12c-3,-8 -6,-5 -6,6c-1,11 2,17 5,13c3,-3 4,-12 1,-19zm-112,-198c3,-5 -1,-10 -9,-10c-8,0 -18,5 -21,10c-3,6 1,10 9,10c8,0 18,-4 21,-10zm-62,-90c3,-11 2,-20 -3,-20c-4,0 -10,9 -13,20c-3,11 -2,20 3,20c4,0 10,-9 13,-20zm72,-95c39,-32 29,-32 -15,0c-19,14 -30,25 -24,25c5,-1 23,-12 39,-25zm140,-93c-3,-3 -11,0 -18,7c-9,10 -8,11 6,5c10,-3 15,-9 12,-12zm-191,-18c9,-3 16,-10 16,-16c0,-5 -4,-7 -8,-4c-5,3 -26,-6 -46,-20c-21,-14 -40,-23 -43,-21c-12,12 10,46 35,56c15,5 28,10 29,10c1,1 8,-2 17,-5zm196,-103c-30,-10 -64,-21 -75,-25c-11,-3 3,5 30,18c28,14 61,25 75,25c16,0 4,-7 -30,-18zm-235,-25c26,-14 26,-15 7,-25c-32,-17 -47,-14 -31,5c12,15 11,16 -9,10c-21,-7 -30,3 -15,17c9,10 17,9 48,-7zm185,-46c-8,-5 -19,-10 -25,-10c-5,0 -3,5 5,10c8,5 20,10 25,10c6,0 3,-5 -5,-10zm67,-6c-3,-3 -12,-4 -19,-1c-8,3 -5,6 6,6c11,1 17,-2 13,-5zm-107,-14c0,-5 -8,-10 -17,-10c-15,0 -16,2 -3,10c19,12 20,12 20,0zm233,-67c-7,-2 -19,-2 -25,0c-7,3 -2,5 12,5c14,0 19,-2 13,-5zm471,-74c15,-5 32,-6 37,-3c5,3 9,-11 9,-30c0,-19 -5,-38 -11,-42c-8,-4 -7,-9 2,-15c10,-6 4,-12 -21,-20c-19,-7 -36,-12 -37,-11c-7,5 -48,-44 -45,-52c7,-21 -9,-56 -25,-56c-13,0 -10,-8 14,-32c30,-33 52,-75 33,-63c-6,3 -10,0 -10,-8c0,-23 68,-43 177,-53c24,-2 52,-8 63,-14c11,-6 20,-9 20,-6c0,3 16,-2 35,-10c20,-8 40,-12 45,-9c6,4 10,3 10,-2c0,-4 10,-9 23,-9c26,-2 127,-45 127,-54c0,-23 -432,-121 -520,-118c-14,0 -45,-3 -70,-8c-25,-5 -100,-8 -167,-6c-97,3 -121,6 -117,17c5,11 -3,11 -42,-1c-54,-16 -73,-17 -93,-5c-24,15 14,78 130,213c58,67 112,134 119,148c7,14 19,29 26,33c16,9 19,37 3,37c-5,0 -8,4 -5,9c5,8 -14,119 -29,168l-7,22l148,-5c82,-3 162,-10 178,-15zm-618,-14c-11,-8 -24,-15 -30,-15c-5,0 -1,7 10,15c10,8 24,14 29,14c6,0 1,-6 -9,-14zm47,-12c-7,-2 -19,-2 -25,0c-7,3 -2,5 12,5c14,0 19,-2 13,-5zm668,-16c-10,-9 -11,-8 -5,6c3,10 9,15 12,12c3,-3 0,-11 -7,-18zm-598,6c-7,-2 -19,-2 -25,0c-7,3 -2,5 12,5c14,0 19,-2 13,-5zm602,-108c52,-51 15,-135 -60,-135c-51,0 -90,39 -81,83c13,70 94,100 141,52zm-545,-70c-30,-19 -59,-35 -65,-35c-5,1 4,8 20,17c17,9 41,24 54,34c13,11 29,19 35,19c5,0 -14,-16 -44,-35zm-86,0c-4,-8 -11,-15 -16,-15c-6,0 -5,6 2,15c7,8 14,15 16,15c2,0 1,-7 -2,-15z" fill="#ffffff" id="svg_7"/>
   <path d="m1708,-4107c7,-3 16,-2 19,1c4,3 -2,6 -13,5c-11,0 -14,-3 -6,-6z" fill="#ffffff" id="svg_8"/>
   <path d="m1307,-2526c13,-10 14,-13 4,-14c-8,0 -11,-3 -8,-6c7,-7 37,14 37,25c0,3 -11,7 -26,7c-23,2 -24,1 -7,-12z" fill="#ffffff" id="svg_9"/>
   <path d="m1780,-2529c0,-6 4,-12 8,-15c5,-3 9,1 9,9c0,8 -4,15 -9,15c-4,0 -8,-4 -8,-9z" fill="#ffffff" id="svg_10"/>
   <path d="m1896,-2625c-16,-12 -17,-18 -8,-27c9,-9 12,-8 12,6c0,9 5,14 10,11c6,-3 10,1 10,9c0,19 0,19 -24,1z" fill="#ffffff" id="svg_11"/>
  </g>
 </g>
</svg>